<?xml version="1.0" encoding="UTF-8"?>
<!DOCTYPE svg PUBLIC "-//W3C//DTD SVG 1.1//EN" "http://www.w3.org/Graphics/SVG/1.1/DTD/svg11.dtd">
<svg xmlns="http://www.w3.org/2000/svg" version="1.1" width="60px" height="60px" style="shape-rendering:geometricPrecision; text-rendering:geometricPrecision; image-rendering:optimizeQuality; fill-rule:evenodd; clip-rule:evenodd" xmlns:xlink="http://www.w3.org/1999/xlink">
<g><path style="opacity:0.759" fill="#fab004" d="M 10.5,-0.5 C 14.8333,-0.5 19.1667,-0.5 23.5,-0.5C 33.1203,4.97504 36.787,13.3084 34.5,24.5C 45.6916,22.213 54.025,25.8797 59.5,35.5C 59.5,39.5 59.5,43.5 59.5,47.5C 57.9283,52.074 54.9283,55.4073 50.5,57.5C 50.9268,56.7384 50.9268,55.7384 50.5,54.5C 58.4124,46.2601 58.4124,38.0934 50.5,30C 48.913,29.1376 47.2464,28.4709 45.5,28C 33.737,27.9583 22.0703,27.2916 10.5,26C 6.25123,21.4537 5.4179,16.2871 8,10.5C 11.7434,6.74056 16.2434,5.57389 21.5,7C 24,8.16667 25.8333,10 27,12.5C 27.4988,16.4862 27.6655,20.4862 27.5,24.5C 28.8333,24.5 30.1667,24.5 31.5,24.5C 33.6804,12.1601 28.8471,4.49346 17,1.5C 14.9129,2.39722 12.7463,3.06389 10.5,3.5C 9.44802,3.64945 8.44802,3.48278 7.5,3C 8.75598,2.58309 9.42265,1.74975 9.5,0.5C 10.1667,0.5 10.5,0.166667 10.5,-0.5 Z M 13.5,9.5 C 23.4753,9.50791 27.142,14.5079 24.5,24.5C 20.8183,24.6653 17.1516,24.4986 13.5,24C 8.21381,19.1687 8.21381,14.3354 13.5,9.5 Z M 16.5,14.5 C 20.0952,15.9051 20.2619,17.5717 17,19.5C 16.5065,17.8659 16.3398,16.1992 16.5,14.5 Z"/></g>
<g><path style="opacity:0.975" fill="#f9af05" d="M 14.5,12.5 C 21.3034,11.7348 23.3034,14.5681 20.5,21C 18.5273,21.4955 16.5273,21.6621 14.5,21.5C 14.5,18.5 14.5,15.5 14.5,12.5 Z M 16.5,14.5 C 16.3398,16.1992 16.5065,17.8659 17,19.5C 20.2619,17.5717 20.0952,15.9051 16.5,14.5 Z"/></g>
<g><path style="opacity:0.768" fill="#faaf04" d="M 9.5,0.5 C 9.42265,1.74975 8.75598,2.58309 7.5,3C 8.44802,3.48278 9.44802,3.64945 10.5,3.5C 2.63888,8.64684 0.472215,15.6468 4,24.5C 6.36486,27.8691 9.53152,30.0357 13.5,31C 25.263,31.0417 36.9297,31.7084 48.5,33C 52.7488,37.5463 53.5821,42.7129 51,48.5C 47.2566,52.2594 42.7566,53.4261 37.5,52C 35,50.8333 33.1667,49 32,46.5C 31.5012,42.5138 31.3345,38.5138 31.5,34.5C 30.1667,34.5 28.8333,34.5 27.5,34.5C 25.3196,46.8399 30.1529,54.5065 42,57.5C 44.8595,56.5767 47.6929,55.5767 50.5,54.5C 50.9268,55.7384 50.9268,56.7384 50.5,57.5C 49.5,58.1667 48.5,58.8333 47.5,59.5C 43.5,59.5 39.5,59.5 35.5,59.5C 25.8797,54.025 22.213,45.6916 24.5,34.5C 13.3084,36.787 4.97504,33.1203 -0.5,23.5C -0.5,19.1667 -0.5,14.8333 -0.5,10.5C 1.80568,6.19429 5.13901,2.86096 9.5,0.5 Z M 34.5,34.5 C 38.1817,34.3347 41.8484,34.5014 45.5,35C 50.8333,39.6667 50.8333,44.3333 45.5,49C 41.1019,50.3785 37.6019,49.2118 35,45.5C 34.5014,41.8484 34.3347,38.1817 34.5,34.5 Z M 41.5,39.5 C 43.898,40.8823 44.0647,42.549 42,44.5C 40.2116,42.9769 40.0449,41.3102 41.5,39.5 Z"/></g>
<g><path style="opacity:0.939" fill="#faaf04" d="M 38.5,37.5 C 40.8333,37.5 43.1667,37.5 45.5,37.5C 45.5,40.5 45.5,43.5 45.5,46.5C 43.1667,46.5 40.8333,46.5 38.5,46.5C 38.5,43.5 38.5,40.5 38.5,37.5 Z M 41.5,39.5 C 40.0449,41.3102 40.2116,42.9769 42,44.5C 44.0647,42.549 43.898,40.8823 41.5,39.5 Z"/></g>
</svg>
