<?xml version="1.0" encoding="UTF-8"?>
<!DOCTYPE svg PUBLIC "-//W3C//DTD SVG 1.1//EN" "http://www.w3.org/Graphics/SVG/1.1/DTD/svg11.dtd">
<svg xmlns="http://www.w3.org/2000/svg" version="1.1" width="64px" height="64px" style="shape-rendering:geometricPrecision; text-rendering:geometricPrecision; image-rendering:optimizeQuality; fill-rule:evenodd; clip-rule:evenodd" xmlns:xlink="http://www.w3.org/1999/xlink">
<g><path style="opacity:0.883" fill="#faaf04" d="M 26.5,-0.5 C 29.5,-0.5 32.5,-0.5 35.5,-0.5C 44.2493,2.25684 48.916,8.25684 49.5,17.5C 56.264,17.268 60.9307,20.268 63.5,26.5C 63.5,29.1667 63.5,31.8333 63.5,34.5C 62.3994,35.8484 61.3994,37.3484 60.5,39C 59.2068,39.49 57.8734,39.6567 56.5,39.5C 57.7516,36.6453 58.7516,33.6453 59.5,30.5C 59.3518,27.3703 58.0184,24.8703 55.5,23C 52.4322,21.9842 49.4322,20.8175 46.5,19.5C 44.1589,5.66826 36.4923,1.16826 23.5,6C 19.4508,9.59802 17.1175,14.098 16.5,19.5C 12.1418,20.5426 8.30842,22.5426 5,25.5C 4.07697,27.0344 3.57697,28.701 3.5,30.5C 4.90635,34.2039 6.23969,37.8705 7.5,41.5C 3.59881,40.6 0.932147,38.2667 -0.5,34.5C -0.5,31.8333 -0.5,29.1667 -0.5,26.5C 2.06932,20.268 6.73599,17.268 13.5,17.5C 13.9804,8.69032 18.3138,2.69032 26.5,-0.5 Z"/></g>
<g><path style="opacity:0.901" fill="#f9af04" d="M 34.5,63.5 C 32.5,63.5 30.5,63.5 28.5,63.5C 24.3533,59.0183 24.52,54.685 29,50.5C 29.4998,39.8385 29.6665,29.1719 29.5,18.5C 30.8333,18.5 32.1667,18.5 33.5,18.5C 33.3335,29.1719 33.5002,39.8385 34,50.5C 38.48,54.685 38.6467,59.0183 34.5,63.5 Z M 30.5,54.5 C 33.9563,55.5362 34.2896,57.2029 31.5,59.5C 29.2957,58.218 28.9624,56.5514 30.5,54.5 Z"/></g>
<g><path style="opacity:0.885" fill="#faad04" d="M 37.5,25.5 C 38.5,25.5 39.5,25.5 40.5,25.5C 40.8439,32.3364 44.5105,35.5031 51.5,35C 53.5037,37.8408 54.0037,41.0074 53,44.5C 45.0051,48.9247 41.0051,46.5914 41,37.5C 37.7838,34.2258 36.6171,30.2258 37.5,25.5 Z M 45.5,38.5 C 46.8333,38.5 48.1667,38.5 49.5,38.5C 49.5,39.8333 49.5,41.1667 49.5,42.5C 48.1667,42.5 46.8333,42.5 45.5,42.5C 45.5,41.1667 45.5,39.8333 45.5,38.5 Z"/></g>
<g><path style="opacity:0.895" fill="#faad04" d="M 22.5,28.5 C 23.5,28.5 24.5,28.5 25.5,28.5C 25.6653,32.1817 25.4986,35.8484 25,39.5C 22.0405,42.0982 20.7072,45.4316 21,49.5C 12,54.1667 8.33333,51.5 10,41.5C 12.5074,39.8447 15.3408,39.0114 18.5,39C 22.0482,36.4093 23.3815,32.9093 22.5,28.5 Z M 13.5,43.5 C 14.8333,43.5 16.1667,43.5 17.5,43.5C 17.5,44.8333 17.5,46.1667 17.5,47.5C 16.1667,47.5 14.8333,47.5 13.5,47.5C 13.5,46.1667 13.5,44.8333 13.5,43.5 Z"/></g>
</svg>
